<?xml version="1.0" encoding="UTF-8"?>
<svg version="1.1" xmlns="http://www.w3.org/2000/svg" width="96" height="96">
<path d="M0 0 C0.99 0 1.98 0 3 0 C3 2.31 3 4.62 3 7 C5.64 7 8.28 7 11 7 C11 21.52 11 36.04 11 51 C8.36 51 5.72 51 3 51 C3 53.31 3 55.62 3 58 C2.01 58 1.02 58 0 58 C0 55.69 0 53.38 0 51 C-2.31 51 -4.62 51 -7 51 C-7 36.48 -7 21.96 -7 7 C-4.69 7 -2.38 7 0 7 C0 4.69 0 2.38 0 0 Z " fill="#F78F8F" transform="translate(33,14)"/>
<path d="M0 0 C0.99 0 1.98 0 3 0 C3 2.31 3 4.62 3 7 C5.31 7 7.62 7 10 7 C10 19.87 10 32.74 10 46 C7.69 46 5.38 46 3 46 C3 48.64 3 51.28 3 54 C2.01 54 1.02 54 0 54 C0 51.36 0 48.72 0 46 C-2.64 46 -5.28 46 -8 46 C-8 33.13 -8 20.26 -8 7 C-5.36 7 -2.72 7 0 7 C0 4.69 0 2.38 0 0 Z " fill="#F68E8E" transform="translate(84,2)"/>
<path d="M0 0 C0.99 0 1.98 0 3 0 C3 2.31 3 4.62 3 7 C5.64 7 8.28 7 11 7 C11 18.55 11 30.1 11 42 C8.36 42 5.72 42 3 42 C3 44.31 3 46.62 3 49 C2.01 49 1.02 49 0 49 C0 46.69 0 44.38 0 42 C-2.31 42 -4.62 42 -7 42 C-7 30.45 -7 18.9 -7 7 C-4.69 7 -2.38 7 0 7 C0 4.69 0 2.38 0 0 Z " fill="#BAE0BD" transform="translate(9,45)"/>
<path d="M0 0 C0.99 0 1.98 0 3 0 C3 2.64 3 5.28 3 8 C5.31 8 7.62 8 10 8 C10 17.57 10 27.14 10 37 C7.69 37 5.38 37 3 37 C3 39.31 3 41.62 3 44 C2.01 44 1.02 44 0 44 C0 41.69 0 39.38 0 37 C-2.64 37 -5.28 37 -8 37 C-8 27.43 -8 17.86 -8 8 C-5.36 8 -2.72 8 0 8 C0 5.36 0 2.72 0 0 Z " fill="#B9DFBC" transform="translate(60,40)"/>
<path d="M0 0 C0.99 0 1.98 0 3 0 C3 2.31 3 4.62 3 7 C5.64 7 8.28 7 11 7 C11 21.52 11 36.04 11 51 C8.36 51 5.72 51 3 51 C3 53.31 3 55.62 3 58 C2.01 58 1.02 58 0 58 C0 55.69 0 53.38 0 51 C-2.31 51 -4.62 51 -7 51 C-7 36.48 -7 21.96 -7 7 C-4.69 7 -2.38 7 0 7 C0 4.69 0 2.38 0 0 Z M-5 9 C-5 22.2 -5 35.4 -5 49 C-0.38 49 4.24 49 9 49 C9 35.8 9 22.6 9 9 C4.38 9 -0.24 9 -5 9 Z " fill="#CB4A4A" transform="translate(33,14)"/>
<path d="M0 0 C0.99 0 1.98 0 3 0 C3 2.31 3 4.62 3 7 C5.31 7 7.62 7 10 7 C10 19.87 10 32.74 10 46 C7.69 46 5.38 46 3 46 C3 48.64 3 51.28 3 54 C2.01 54 1.02 54 0 54 C0 51.36 0 48.72 0 46 C-2.64 46 -5.28 46 -8 46 C-8 33.13 -8 20.26 -8 7 C-5.36 7 -2.72 7 0 7 C0 4.69 0 2.38 0 0 Z M-6 9 C-6 20.88 -6 32.76 -6 45 C-1.38 45 3.24 45 8 45 C8 33.12 8 21.24 8 9 C3.38 9 -1.24 9 -6 9 Z " fill="#C74242" transform="translate(84,2)"/>
<path d="M0 0 C0.99 0 1.98 0 3 0 C3 2.31 3 4.62 3 7 C5.64 7 8.28 7 11 7 C11 18.55 11 30.1 11 42 C8.36 42 5.72 42 3 42 C3 44.31 3 46.62 3 49 C2.01 49 1.02 49 0 49 C0 46.69 0 44.38 0 42 C-2.31 42 -4.62 42 -7 42 C-7 30.45 -7 18.9 -7 7 C-4.69 7 -2.38 7 0 7 C0 4.69 0 2.38 0 0 Z M-5 9 C-5 19.23 -5 29.46 -5 40 C-0.38 40 4.24 40 9 40 C9 29.77 9 19.54 9 9 C4.38 9 -0.24 9 -5 9 Z " fill="#66A17C" transform="translate(9,45)"/>
<path d="M0 0 C0.99 0 1.98 0 3 0 C3 2.64 3 5.28 3 8 C5.31 8 7.62 8 10 8 C10 17.57 10 27.14 10 37 C7.69 37 5.38 37 3 37 C3 39.31 3 41.62 3 44 C2.01 44 1.02 44 0 44 C0 41.69 0 39.38 0 37 C-2.64 37 -5.28 37 -8 37 C-8 27.43 -8 17.86 -8 8 C-5.36 8 -2.72 8 0 8 C0 5.36 0 2.72 0 0 Z M-6 9 C-6 17.58 -6 26.16 -6 35 C-1.38 35 3.24 35 8 35 C8 26.42 8 17.84 8 9 C3.38 9 -1.24 9 -6 9 Z " fill="#6BA580" transform="translate(60,40)"/>
<path d="M0 0 C0.99 0 1.98 0 3 0 C3 2.31 3 4.62 3 7 C4.98 7 6.96 7 9 7 C9 19.54 9 32.08 9 45 C8.67 45 8.34 45 8 45 C8 33.12 8 21.24 8 9 C3.38 9 -1.24 9 -6 9 C-6 8.34 -6 7.68 -6 7 C-4.02 7 -2.04 7 0 7 C0 4.69 0 2.38 0 0 Z " fill="#D05151" transform="translate(84,2)"/>
<path d="M0 0 C0.33 0 0.66 0 1 0 C1.33 10.23 1.66 20.46 2 31 C6.29 31.33 10.58 31.66 15 32 C15 32.33 15 32.66 15 33 C13.35 33 11.7 33 10 33 C10 35.31 10 37.62 10 40 C9.01 40 8.02 40 7 40 C7 37.69 7 35.38 7 33 C4.69 33 2.38 33 0 33 C0 22.11 0 11.22 0 0 Z " fill="#5E9B75" transform="translate(2,54)"/>
<path d="M0 0 C0.99 0 1.98 0 3 0 C3 2.64 3 5.28 3 8 C5.31 8 7.62 8 10 8 C10 17.57 10 27.14 10 37 C9.34 36.67 8.68 36.34 8 36 C8.33 27.09 8.66 18.18 9 9 C4.05 9 -0.9 9 -6 9 C-6 8.67 -6 8.34 -6 8 C-4.02 8 -2.04 8 0 8 C0 5.36 0 2.72 0 0 Z " fill="#5E9B75" transform="translate(60,40)"/>
</svg>
